<svg width="18" height="18" viewBox="0 0 18 18" fill="none" xmlns="http://www.w3.org/2000/svg">
<path d="M9 17.0625C4.5525 17.0625 0.9375 13.4475 0.9375 9C0.9375 4.5525 4.5525 0.9375 9 0.9375C13.4475 0.9375 17.0625 4.5525 17.0625 9C17.0625 13.4475 13.4475 17.0625 9 17.0625ZM9 2.0625C5.175 2.0625 2.0625 5.175 2.0625 9C2.0625 12.825 5.175 15.9375 9 15.9375C12.825 15.9375 15.9375 12.825 15.9375 9C15.9375 5.175 12.825 2.0625 9 2.0625Z" fill="white"/>
<path d="M11.7825 11.9475C11.685 11.9475 11.5875 11.925 11.4975 11.865L9.1725 10.4775C8.595 10.1325 8.1675 9.375 8.1675 8.7075V5.6325C8.1675 5.325 8.4225 5.07 8.73 5.07C9.0375 5.07 9.2925 5.325 9.2925 5.6325V8.7075C9.2925 8.9775 9.5175 9.375 9.75 9.51L12.075 10.8975C12.345 11.055 12.4275 11.4 12.27 11.67C12.1575 11.85 11.97 11.9475 11.7825 11.9475Z" fill="white"/>
</svg>
